<?xml version="1.0" encoding="iso-8859-1"?>
<!-- Uploaded to: SVG Repo, www.svgrepo.com, Generator: SVG Repo Mixer Tools -->
<svg height="800px" width="800px" version="1.1" id="Layer_1" xmlns="http://www.w3.org/2000/svg" xmlns:xlink="http://www.w3.org/1999/xlink" 
	 viewBox="0 0 512 512" xml:space="preserve">
<g>
	<polygon style="fill:#B8D6FD;" points="482.336,140.409 430.127,140.409 445.282,116.638 482.336,110.437 	"/>
	<polygon style="fill:#B8D6FD;" points="22.566,140.409 74.775,140.409 59.62,116.638 33.593,123.006 	"/>
	<polygon style="fill:#B8D6FD;" points="399.805,140.409 314.745,420.918 249.145,479.455 176.636,372.443 95.234,140.525 
		220.538,32.482 276.197,57.178 	"/>
</g>
<g>
	<polygon style="opacity:0.26;fill:#3C66B1;enable-background:new    ;" points="343.018,102.192 277.246,319.092 211.647,377.628 
		142.721,275.905 176.606,372.443 249.114,479.455 314.714,420.918 399.775,140.409 	"/>
	<path style="fill:#3C66B1;" d="M504.411,147.997H7.589c-4.191,0-7.589-3.397-7.589-7.589s3.398-7.589,7.589-7.589h496.822
		c4.191,0,7.589,3.397,7.589,7.589S508.603,147.997,504.411,147.997z"/>
	<path style="fill:#3C66B1;" d="M427.428,173.451H67.892c-4.191,0-7.589-3.397-7.589-7.589s3.398-7.589,7.589-7.589h359.537
		c4.191,0,7.589,3.397,7.589,7.589S431.619,173.451,427.428,173.451z"/>
	<path style="opacity:0.41;fill:#3C66B1;enable-background:new    ;" d="M164.85,80.439l49.851,25.786
		c1.117,0.58,2.311,0.855,3.489,0.855c2.743,0,5.392-1.493,6.743-4.096c1.931-3.721,0.48-8.3-3.241-10.231l-5.723-2.97l10.266-5.462
		c3.7-1.968,5.104-6.564,3.135-10.264c-1.969-3.702-6.565-5.103-10.264-3.136l-19.497,10.372l-22.322-11.517L164.85,80.439z"/>
</g>
<g>
	<circle style="fill:#B8D6FD;" cx="67.895" cy="281.042" r="12.59"/>
	<circle style="fill:#B8D6FD;" cx="99.576" cy="343.898" r="17.637"/>
	<circle style="fill:#B8D6FD;" cx="409.223" cy="330.876" r="12.59"/>
	<circle style="fill:#B8D6FD;" cx="431.271" cy="253.671" r="17.653"/>
</g>
<g>
	<path style="fill:#3C66B1;" d="M376.498,195.452L262.785,289.26c-3.233,2.667-3.692,7.449-1.025,10.683
		c1.501,1.819,3.671,2.76,5.859,2.76c1.7,0,3.411-0.569,4.825-1.735l25.872-21.343l3.152,13.711c0.807,3.513,3.932,5.89,7.39,5.89
		c0.564,0,1.135-0.064,1.707-0.194c4.085-0.939,6.635-5.012,5.696-9.097l-4.853-21.109l65.941-54.398l6.18-20.381
		C381.18,193.335,378.532,193.773,376.498,195.452z"/>
	<path style="fill:#3C66B1;" d="M211.941,252.234c-3.435-2.396-8.166-1.56-10.567,1.875l-11.539,16.515L169.3,210.769
		c-1.36-3.964-5.674-6.078-9.641-4.715c-3.964,1.36-6.075,5.675-4.715,9.64l32.055,93.432c1.081,3.149,4.025,5.128,7.178,5.128
		c0.817,0,1.647-0.133,2.464-0.413c3.964-1.36,6.075-5.676,4.715-9.64l-5.422-15.802l17.883-25.596
		C216.217,259.367,215.378,254.636,211.941,252.234z"/>
	<path style="fill:#3C66B1;" d="M278.016,410.738l-30.598-28.264c-0.03-0.028-0.065-0.051-0.096-0.079
		c-0.152-0.136-0.31-0.262-0.472-0.385c-0.063-0.048-0.121-0.1-0.186-0.145c-0.221-0.157-0.45-0.301-0.687-0.433
		c-0.081-0.046-0.166-0.084-0.249-0.126c-0.169-0.087-0.34-0.169-0.516-0.243c-0.097-0.04-0.194-0.079-0.293-0.115
		c-0.175-0.066-0.352-0.123-0.533-0.176c-0.063-0.018-0.122-0.045-0.185-0.061l-66.34-17.472c-1.526-0.401-3.064-0.308-4.446,0.178
		l3.19,9.089l5.029,7.421l53.47,14.082l5.454,72.882l8.555,12.626l7.134-6.366l-4.973-66.454l18.397,16.993
		c1.265,1.168,2.888,1.871,4.605,1.994l32.546,2.338l7.89-7.04l2.201-7.258c-0.529-0.16-1.083-0.27-1.657-0.312L278.016,410.738z"/>
</g>
</svg>