<?xml version="1.0" encoding="iso-8859-1"?>
<!-- Uploaded to: SVG Repo, www.svgrepo.com, Generator: SVG Repo Mixer Tools -->
<svg height="800px" width="800px" version="1.1" id="Layer_1" xmlns="http://www.w3.org/2000/svg" xmlns:xlink="http://www.w3.org/1999/xlink" 
	 viewBox="0 0 390.788 390.788" xml:space="preserve">
<path style="fill:#FFFFFF;" d="M329.503,132.047c-6.529-1.099-9.762-8.663-8.145-14.093h-31.418
	c-5.947,0-10.861-4.848-10.861-10.861c0-5.947,4.848-10.861,10.861-10.861h36.848c0-1.616,0-3.814,0-5.43
	c0-5.43-0.517-10.861-2.198-16.291h-56.889c-5.947,0-10.861-4.848-10.861-10.861s4.849-10.861,10.861-10.861h47.709
	c-12.477-18.424-33.616-30.901-57.471-30.901c-25.988,0-49.325,14.61-61.22,37.947c-3.232,6.529-11.895,7.564-16.808,3.232
	c-12.477-10.861-28.703-16.808-44.994-16.808c-37.947,0-68.848,30.901-68.848,68.848c1.616,8.663,0,15.192-7.564,17.325
	c-21.657,5.947-36.848,25.471-36.848,48.226c0,27.669,22.238,49.842,49.842,49.842h78.028l54.756-70.465
	c4.331-5.43,11.895-5.43,16.291-1.099l65.034,65.228c1.616,1.616,2.715,3.814,3.232,5.947h30.384
	c27.669,0,49.842-22.238,49.842-49.842C368.549,157.518,352.259,136.96,329.503,132.047z"/>
<path style="fill:#56ACE0;" d="M345.212,190.035c-3.814,11.378-15.192,18.941-27.669,18.941H239.58l-25.471-25.471l-20.04,25.535
	H71.499c-16.808,0-30.319-14.61-28.186-31.418C44.929,166.245,53.592,157,64.97,153.768c14.61-4.331,23.855-17.907,22.756-33.034
	v-5.43c0-25.988,21.139-47.127,47.127-47.127c14.61,0,24.954,5.947,30.901,11.378l1.099,1.099
	c15.192,13.576,39.046,8.663,48.226-9.244l0.517-1.616c9.762-18.941,30.384-29.285,52.04-24.954
	c20.04,4.331,35.749,22.756,36.848,43.378c0.517,7.564-0.517,14.61-3.232,21.139l-0.517,1.616
	c-7.564,17.907,3.232,37.947,22.238,42.279l1.616,0.517C340.364,157,350.642,173.809,345.212,190.035z"/>
<path style="fill:#FFC10D;" d="M197.301,284.354l64.517-53.139l-47.709-47.709l-63.418,80.743l20.04,20.04
	c3.232,3.232,4.331,8.663,1.616,12.994l-33.034,57.988l75.83-35.685l-18.941-18.941
	C191.289,293.534,192.388,288.685,197.301,284.354z"/>
<path style="fill:#194F82;" d="M345.794,114.722c2.198-7.564,3.232-15.709,3.232-23.273c0-49.842-40.663-90.505-90.505-90.505
	c-29.802,0-57.471,14.61-74.279,38.465c-14.61-9.244-31.418-14.61-48.808-14.61c-50.424,0-90.505,40.081-91.022,89.988
	C17.842,125.647,0,151.635,0,180.92c0,39.499,32,71.434,71.564,71.434h61.22l-4.848,5.947c-3.232,4.331-2.715,10.279,1.099,14.093
	l21.139,21.139l-46.61,80.226c-4.848,7.046,2.198,19.523,14.093,15.192l121.406-57.471c8.145-3.232,8.145-11.895,3.232-17.325
	l-21.657-21.657l49.842-41.18h48.743c39.564,0,71.564-32,71.564-71.564C390.206,151.57,371.782,125,345.794,114.722z
	 M318.642,230.697h-30.319c-0.517-2.198-1.616-4.331-3.232-5.947l-65.034-65.034c-3.814-4.848-11.378-4.848-15.709,0.517
	l-54.756,70.465H71.564c-27.669,0-49.842-22.238-49.842-49.842c0-22.238,15.192-42.279,36.848-48.226
	c7.564-2.715,9.244-8.663,7.564-17.325c0-37.947,30.901-68.848,68.848-68.848c16.291,0,32.517,5.947,44.994,16.808
	c4.848,4.331,13.576,3.232,16.808-3.232c11.895-23.273,35.232-37.947,61.22-37.947c23.855,0,44.994,12.477,57.471,30.901h-47.709
	c-5.947,0-10.861,4.848-10.861,10.861c0,5.947,4.848,10.861,10.861,10.861h56.889c1.099,5.43,2.198,10.861,2.198,16.291
	c0,1.616,0,3.814,0,5.43h-36.848c-5.947,0-10.861,4.848-10.861,10.861c0,6.012,4.848,10.861,10.861,10.861h32
	c-1.616,5.43,1.616,12.994,8.145,14.093c22.756,4.848,39.046,25.471,39.046,48.808C368.549,208.459,346.311,230.697,318.642,230.697
	z M139.249,355.336l33.616-57.471c2.715-4.331,1.616-9.762-1.616-12.994l-20.04-20.04l62.836-80.743l47.709,47.709l-64.517,53.139
	c-4.331,4.331-5.43,9.762-0.517,16.291l18.941,18.941L139.249,355.336z"/>
</svg>